<?xml version="1.0" encoding="UTF-8"?>
<!DOCTYPE svg PUBLIC "-//W3C//DTD SVG 1.1//EN" "http://www.w3.org/Graphics/SVG/1.1/DTD/svg11.dtd">
<!-- Creator: CorelDRAW 2019 (64-Bit) -->
<svg xmlns="http://www.w3.org/2000/svg" xml:space="preserve" width="39.3701in" height="39.3701in" version="1.1" style="shape-rendering:geometricPrecision; text-rendering:geometricPrecision; image-rendering:optimizeQuality; fill-rule:evenodd; clip-rule:evenodd"
viewBox="0 0 39370.08 39370.08"
 xmlns:xlink="http://www.w3.org/1999/xlink"
 xmlns:xodm="http://www.corel.com/coreldraw/odm/2003">
 <defs>
  <style type="text/css">
   <![CDATA[
    .fil0 {fill:black;fill-rule:nonzero}
   ]]>
  </style>
 </defs>
 <g id="Layer_x0020_1">
  <metadata id="CorelCorpID_0Corel-Layer"/>
  <path class="fil0" d="M23127.27 7215.07c-275.57,-382.5 -667.25,-621.05 -1330.44,-886.46 -468.16,-187.35 -959.64,-343.03 -1438,-506.2 -861.99,289.8 -2133.22,176.65 -2809.32,-465.33 -381.19,-361.96 -610.76,-822.95 -446.7,-1348.47 -303.3,-232.41 -649.34,-440.76 -1015.22,-583.81 -1551.56,-606.63 -2900.4,197.45 -3123.06,1815.48 -185.95,1351.35 391.52,2868.59 1344.43,3830.55 257.3,259.75 540.56,510.72 845.06,751.92 315.51,249.91 657.36,491.96 1019.98,724.76 1582.96,1016.29 3524.17,1824.73 5374.5,2325.47 1817.54,491.87 3541.09,685.98 4742.06,487.04 48.62,-8.64 97.3,-17.26 145.81,-26.49 -44.81,-18.02 -88.93,-37.43 -132.36,-58.14 -1582.56,-754.99 -2257.54,-3257.9 -2440.79,-4015.98 -156.15,-645.99 -356.85,-1518.1 -735.98,-2044.35zm2450.99 3724.72c-112.7,-16.93 -86.97,-188.3 25.74,-171.37 1024.35,156.27 2371.91,422.33 3285.8,918.52 99.79,54.34 17.16,206.08 -82.64,151.73 -893.93,-485.34 -2226.9,-746.02 -3228.9,-898.88zm4807.41 22061.89c-4369.16,3546.81 -16647.59,2937.85 -21344.64,228.07l0 760.43c0,210.1 -51.65,419.88 -51.65,614.93 0,879.99 1172.46,1695.94 3068.07,2303.77 1805.51,578.93 4251.6,953.7 6972.52,1007.05 2589.67,50.74 5508.17,-172.23 8003.53,-910.32 883.68,-261.37 2669.22,-897.61 3126.94,-1726.86 171.21,-310.2 225.22,-689.35 225.23,-1234.06l0 -1043.01zm-21344.64 108.21c4642.39,2725.26 17057.14,3351.46 21344.64,-243.04l0 -1445.89c-4371.15,3490.17 -16651.18,2887.55 -21344.64,224.46l0 1464.47zm0 -1583.74c4639,2677.69 17054.39,3297.52 21344.64,-238.81l0 -1446.73c-4373.1,3433.02 -16654.85,2836.84 -21344.64,220.6l0 1464.94zm0 -1583.86c4635.7,2630.43 17051.63,3243.68 21344.64,-234.84l0 -1447.54c-4375.07,3376.22 -16658.39,2786.65 -21344.64,216.98l0 1465.39zm0 -1583.76c4632.36,2583.03 17048.91,3189.62 21344.64,-230.61l0 -1448.69c-4377.02,3319.33 -16661.94,2736.53 -21344.64,213.36l0 1465.94zm0 -1583.77c4627.93,2535.11 17044.94,3136.48 21344.64,-226.39l0 -1449.62c-4378.79,3262.17 -16665.57,2686.17 -21344.64,209.66l0 1466.35zm0 -1583.87c4624.82,2488.17 17042,3082.38 21344.64,-222.28l0 -1450.38c-4380.85,3204.89 -16669.03,2636.05 -21344.64,205.88l0 1466.78zm0 -1583.78c4621.59,2441.07 17039.41,3028.22 21344.64,-218.21l0 -1451.11c-4382.62,3147.57 -16672.67,2585.85 -21344.64,202.06l0 1467.27zm0 -1583.79c4618.64,2394.19 17036.45,2973.92 21344.64,-214.2l0 -1451.99c-4384.52,3090.37 -16676.12,2536 -21344.64,198.43l0 1467.76zm0 -1583.79c4615.44,2347.26 17031.56,2921.13 21344.64,-209.99l0 -1452.84c-4386.24,3032.89 -16679.64,2485.89 -21344.64,194.69l0 1468.14zm0 -1583.9c4612.73,2300.8 17028.43,2866.89 21344.64,-205.89l0 -1453.67c-4388.13,2975.55 -16683.03,2436.17 -21344.64,191.06l0 1468.5zm0 -1583.81c4609.96,2254.21 17025.49,2812.51 21344.64,-201.7l0 -1454.46c-4389.84,2917.91 -16686.55,2386.23 -21344.64,187.21l0 1468.95zm0 -1583.81c4606.92,2207.57 17025,2756.26 21344.64,-197.7l0 -2364.95c-557.62,451.35 -1550.74,845.53 -2857.22,1153.66 -2008.27,473.65 -4779.58,766.61 -7837.91,766.61 -3054.17,0 -5814.13,-292.25 -7817.76,-764.8 -1282.33,-302.43 -2263.89,-687.9 -2831.75,-1128.82l0 2536.01zm11427.27 -12113.52c636.87,375.45 636.87,1046.91 0,1422.36 -581.7,342.92 -1501.56,342.92 -2083.26,0 -636.87,-375.45 -636.87,-1046.91 0,-1422.36 581.7,-342.92 1501.56,-342.92 2083.26,0zm-176.11 298.05c-471.81,-278.15 -1259.22,-278.15 -1731.03,0 -410.35,241.9 -410.33,584.35 0,826.26 471.81,278.14 1259.22,278.14 1731.03,0 410.33,-241.91 410.35,-584.37 0,-826.26zm613.3 -1439.83c-4.72,162.99 64.1,324.51 193.36,471.44 141.31,160.61 351.2,302.06 615.32,410.05 767.09,313.63 2649.12,281.01 3268.94,-302.28 197.7,-186.06 159.54,-391.31 15.78,-598.18 -478.41,-688.37 -1670.27,-1025.83 -2464.63,-995.93 -554.99,20.89 -1608.56,316.15 -1628.78,1014.9zm678.62 1201.21c-316.2,-129.29 -570.55,-302.11 -745.37,-500.82 -186.87,-212.4 -286.08,-455.3 -278.72,-709.88 26.8,-926.21 1223.28,-1323.06 1962.06,-1350.88 913.97,-34.41 2213.73,355.68 2761.32,1143.6 242.73,349.26 261.37,742.51 -63.2,1047.96 -780.9,734.9 -2806.21,709.32 -3636.09,370.02zm-7455.27 5745.76c-1634.59,226.83 -2994.17,549.73 -3935.72,935.07 -863.87,353.54 -1358.07,743.06 -1358.07,1137.04 0,108.38 35.41,215.73 103.79,321.5 399.57,-371.67 1125.73,-715.52 2095.56,-1010.27 1025.04,-311.52 2325.98,-570.65 3802.82,-751.68 -245.43,-198.68 -483.56,-409.92 -708.37,-631.66zm6305.24 -3947.31l4098.8 -1377.78c1611.14,-551.95 2143.22,-1805.32 398.83,-2771.61 -1207.35,-668.81 -3152.7,-871.72 -4309.37,3.99l-2313.06 1837.72c-326.03,259.03 -744.47,561.91 -875.33,980.87 -124.73,399.29 68.7,729.97 353.98,1000.87 674.22,640.22 1810.08,606.96 2646.14,325.93zm-26.87 -4416.57c1158.98,-984.64 3438.22,-729.74 4692.49,-34.93 1973.39,1093.13 1566.31,2721.43 -389.89,3378.99l-3810.32 1280.81c388.8,132.39 764.41,262.15 1026.04,366.85 726.31,290.67 1161.06,559.98 1482.17,1005.69 304.93,423.25 492.29,991.13 723,1883.03 1968.1,203.42 3640.02,538.11 4818.1,957.47 634.73,225.94 1944.06,766.37 1944.06,1598.07l0 819.26c0,167.27 -55.03,330.19 -160.44,487.76l0.06 21359.58c0,102.99 28.36,1227.55 30.33,1227.55 0,1043.63 -1255.94,1969.53 -3287.69,2624.25 -2670.75,860.63 -6002.26,1081.67 -8497.35,1030.27 -2739.26,-56.46 -5204.28,-430.72 -7030.41,-1011.04 -2035.72,-646.93 -3294.76,-1566.45 -3299.86,-2612.55l-2.23 -456.5c-1.61,-328.46 48.93,-624.51 48.93,-930.2l0 -21179.25c-130.79,-172.65 -201.22,-351.94 -205.31,-536.5l-12.72 -573.71c-4.42,-199.32 -8.98,-321.41 57.25,-513.85 153.21,-445.22 691.26,-848.75 1529.64,-1191.86 921.38,-377.08 2221.93,-694.72 3776.11,-923.29 -885.73,-1027.16 -1403.56,-2524.68 -1217.4,-3877.51 253.07,-1839.05 1829.86,-2780.75 3591.81,-2091.86 372.82,145.76 725.26,352.8 1037.3,584.59 212,-347.16 504.41,-564.19 817.26,-812.75l2339.07 -1858.39zm-4036.38 8754.6c95.67,61.4 2.18,207.04 -93.48,145.64 -652.52,-418.91 -1346.85,-955.61 -1746.3,-1635.36 -57.4,-97.9 91.63,-185.27 149.02,-87.38 384.32,654.01 1063.62,1174.48 1690.76,1577.11zm5351.12 -2669.86c-105.59,-42.32 -41.23,-202.87 64.35,-160.54 1035.8,414.53 1159.07,869.63 1423.63,1902.69 28.06,110.05 -139.25,152.7 -167.31,42.67 -250.21,-977.03 -343.58,-1393.78 -1320.67,-1784.82zm-8168.11 -1617.74c-15.14,112.7 -186.52,89.69 -171.37,-23.03 189.28,-1375.43 1361.6,-2070.95 2678.01,-1554.95 106.02,41.43 43.04,202.64 -62.99,161.21 -1211.03,-474.69 -2269.59,151.97 -2443.64,1416.77zm13896.04 7639.6c1439.42,-339.48 2465.56,-759.01 2885.43,-1213 -1089.11,-1041.22 -4382.27,-1559.02 -5847.26,-1735.19 381.03,1118.48 1541.53,3276.13 2961.83,2948.19zm-3021.83 -3129.65c1538.49,181.3 4856.04,697.93 6014.49,1780.11 68.2,-105.64 103.51,-212.85 103.51,-321.08 0,-447.78 -630.24,-886.36 -1712.39,-1271.57 -1130.06,-402.28 -2729.22,-725.59 -4615.33,-927.09 45.45,183.04 114.15,441.61 209.72,739.64zm-9400.02 170c-1538.31,180.62 -2889.8,445.29 -3943.51,765.54 -956.76,290.77 -1664.54,625.09 -2038.75,981.09 419.85,454 1446,873.53 2885.44,1213.02 1983.41,467.78 4726.56,757.12 7759.33,757.12 1470.38,0 2872.69,-68.01 4153.32,-191.4 -752.67,-94.43 -1560.28,-257.39 -2384.77,-480.52 -2213.67,-599.07 -4586.68,-1614.34 -6431.07,-3044.85zm11297.11 3542.96c-1851.24,326.97 -4148.04,520.63 -6634.59,520.63 -3058.33,0 -5829.65,-292.96 -7837.91,-766.6 -1445.91,-341.02 -2507.93,-787.44 -3020.67,-1300.1l2.39 108c20.34,917.12 2530,1537.37 3117,1675.82 1978.77,466.69 4710.61,755.31 7739.19,755.31 3032.76,0 5775.92,-289.33 7759.33,-757.12 1912.97,-451.17 3096.17,-1043.7 3096.17,-1670.63l0 -108.32c-513.9,511.38 -1574.57,956.69 -3017.59,1297.03 -393.37,92.77 -802.69,181.68 -1203.32,245.97zm4063.78 21870.52c-702.84,884.62 -2201.92,1448.94 -3257.88,1761.28 -2536.3,750.19 -5503.58,978.51 -8135.71,924.57 -2741.98,-56.22 -5212.65,-436.94 -7043.55,-1024.01 -1393.02,-446.67 -2423.83,-1020.49 -2939.41,-1672.26 158.57,803.96 1289.16,1538.21 3039.33,2094.39 1804.27,573.37 4251.71,942.05 6978.06,994.43 2508.42,48.16 5677.24,-155.7 8339.71,-1013.66 1716.55,-553.15 2835.32,-1277.36 3019.46,-2064.73z"/>
 </g>
</svg>
